<svg id="Layer_1" data-name="Layer 1" xmlns="http://www.w3.org/2000/svg" xmlns:xlink="http://www.w3.org/1999/xlink" viewBox="0 0 860.96 109.22"><defs><style>.cls-1,.cls-2,.cls-3,.cls-73,.cls-75,.cls-78{fill:none;}.cls-1{clip-rule:evenodd;}.cls-3{fill-rule:evenodd;}.cls-4{clip-path:url(#clip-path);}.cls-5{clip-path:url(#clip-path-2);}.cls-6{fill:#46525f;}.cls-7{clip-path:url(#clip-path-3);}.cls-8{clip-path:url(#clip-path-5);}.cls-9{clip-path:url(#clip-path-7);}.cls-10{clip-path:url(#clip-path-9);}.cls-11{clip-path:url(#clip-path-11);}.cls-12{clip-path:url(#clip-path-13);}.cls-13{clip-path:url(#clip-path-15);}.cls-14{clip-path:url(#clip-path-17);}.cls-15{clip-path:url(#clip-path-19);}.cls-16{clip-path:url(#clip-path-21);}.cls-17{clip-path:url(#clip-path-23);}.cls-18{clip-path:url(#clip-path-25);}.cls-19{clip-path:url(#clip-path-27);}.cls-20{clip-path:url(#clip-path-29);}.cls-21{fill:#fff;}.cls-22{clip-path:url(#clip-path-31);}.cls-23{clip-path:url(#clip-path-34);}.cls-24{fill:#b4d3a2;}.cls-25{clip-path:url(#clip-path-37);}.cls-26{clip-path:url(#clip-path-38);}.cls-27{clip-path:url(#clip-path-39);}.cls-28{clip-path:url(#clip-path-42);}.cls-29{clip-path:url(#clip-path-44);}.cls-30{clip-path:url(#clip-path-45);}.cls-31{clip-path:url(#clip-path-46);}.cls-32{fill:#45525f;}.cls-33{clip-path:url(#clip-path-49);}.cls-34{clip-path:url(#clip-path-50);}.cls-35{clip-path:url(#clip-path-54);}.cls-36{clip-path:url(#clip-path-55);}.cls-37{clip-path:url(#clip-path-59);}.cls-38{clip-path:url(#clip-path-60);}.cls-39{clip-path:url(#clip-path-64);}.cls-40{clip-path:url(#clip-path-65);}.cls-41{clip-path:url(#clip-path-69);}.cls-42{clip-path:url(#clip-path-70);}.cls-43{clip-path:url(#clip-path-74);}.cls-44{clip-path:url(#clip-path-75);}.cls-45{clip-path:url(#clip-path-79);}.cls-46{clip-path:url(#clip-path-80);}.cls-47{clip-path:url(#clip-path-84);}.cls-48{clip-path:url(#clip-path-86);}.cls-49{clip-path:url(#clip-path-88);}.cls-50{clip-path:url(#clip-path-90);}.cls-51{fill:#b6d5a4;}.cls-52{clip-path:url(#clip-path-93);}.cls-53{clip-path:url(#clip-path-96);}.cls-54{clip-path:url(#clip-path-98);}.cls-55{clip-path:url(#clip-path-99);}.cls-56{clip-path:url(#clip-path-100);}.cls-57{clip-path:url(#clip-path-102);}.cls-58{clip-path:url(#clip-path-105);}.cls-59{clip-path:url(#clip-path-107);}.cls-60{clip-path:url(#clip-path-109);}.cls-61{clip-path:url(#clip-path-111);}.cls-62{clip-path:url(#clip-path-113);}.cls-63{clip-path:url(#clip-path-115);}.cls-64{clip-path:url(#clip-path-116);}.cls-65{clip-path:url(#clip-path-118);}.cls-66{clip-path:url(#clip-path-120);}.cls-67{clip-path:url(#clip-path-123);}.cls-68{clip-path:url(#clip-path-126);}.cls-69{clip-path:url(#clip-path-128);}.cls-70{fill:#566572;}.cls-71{clip-path:url(#clip-path-131);}.cls-72{clip-path:url(#clip-path-132);}.cls-73,.cls-75,.cls-78{stroke:#45525f;stroke-miterlimit:10;}.cls-73{stroke-width:3px;}.cls-74{clip-path:url(#clip-path-134);}.cls-75{stroke-width:2px;}.cls-76{clip-path:url(#clip-path-137);}.cls-77{clip-path:url(#clip-path-139);}.cls-78{stroke-width:4px;}.cls-79{clip-path:url(#clip-path-141);}.cls-80{clip-path:url(#clip-path-143);}.cls-81{clip-path:url(#clip-path-145);}.cls-82{clip-path:url(#clip-path-148);}.cls-83{clip-path:url(#clip-path-151);}.cls-84{clip-path:url(#clip-path-152);}.cls-85{clip-path:url(#clip-path-156);}.cls-86{clip-path:url(#clip-path-157);}</style><clipPath id="clip-path" transform="translate(-32 -25.72)"><path class="cls-1" d="M184.4,51a2,2,0,0,1,2-2h27.51a2,2,0,0,1,2,2v58.94H184.4V51Zm-12-14h55.5v84.93H172.4V37Z"/></clipPath><clipPath id="clip-path-2" transform="translate(-32 -25.72)"><rect class="cls-2" x="-745.77" y="-1314.74" width="1920" height="2825"/></clipPath><clipPath id="clip-path-3" transform="translate(-32 -25.72)"><rect class="cls-2" x="182.07" y="57.21" width="36.17" height="2.34"/></clipPath><clipPath id="clip-path-5" transform="translate(-32 -25.72)"><rect class="cls-2" x="182.07" y="67.75" width="36.17" height="2.34"/></clipPath><clipPath id="clip-path-7" transform="translate(-32 -25.72)"><rect class="cls-2" x="182.07" y="78.3" width="36.17" height="2.34"/></clipPath><clipPath id="clip-path-9" transform="translate(-32 -25.72)"><rect class="cls-2" x="182.07" y="88.84" width="36.17" height="2.34"/></clipPath><clipPath id="clip-path-11" transform="translate(-32 -25.72)"><rect class="cls-2" x="182.07" y="99.39" width="36.17" height="2.34"/></clipPath><clipPath id="clip-path-13" transform="translate(-32 -25.72)"><path class="cls-1" d="M218.23,66.24a2,2,0,0,1,2-2h27.51a2,2,0,0,1,2,2v49.55h-31.5V66.24Zm-12-14h55.5v75.56h-55.5V52.24Z"/></clipPath><clipPath id="clip-path-15" transform="translate(-32 -25.72)"><rect class="cls-2" x="215.9" y="73.61" width="36.17" height="2.34"/></clipPath><clipPath id="clip-path-17" transform="translate(-32 -25.72)"><rect class="cls-2" x="215.9" y="84.16" width="36.17" height="2.34"/></clipPath><clipPath id="clip-path-19" transform="translate(-32 -25.72)"><rect class="cls-2" x="215.9" y="94.7" width="36.17" height="2.34"/></clipPath><clipPath id="clip-path-21" transform="translate(-32 -25.72)"><rect class="cls-2" x="215.9" y="105.25" width="36.17" height="2.34"/></clipPath><clipPath id="clip-path-23" transform="translate(-32 -25.72)"><path class="cls-1" d="M150.57,85a2,2,0,0,1,2-2h27.51a2,2,0,0,1,2,2v32h-31.5V85Zm-12-14h55.5v58h-55.5V71Z"/></clipPath><clipPath id="clip-path-25" transform="translate(-32 -25.72)"><rect class="cls-2" x="148.23" y="93.53" width="36.17" height="2.34"/></clipPath><clipPath id="clip-path-27" transform="translate(-32 -25.72)"><rect class="cls-2" x="148.23" y="105.25" width="36.17" height="2.34"/></clipPath><clipPath id="clip-path-29" transform="translate(-32 -25.72)"><ellipse class="cls-2" cx="242.73" cy="78.85" rx="25.32" ry="25.43" transform="translate(15.34 194.73) rotate(-45)"/></clipPath><clipPath id="clip-path-31" transform="translate(-32 -25.72)"><path class="cls-1" d="M256,95.56l4-4,16.74,16.74a2.84,2.84,0,0,1-4,4Z"/></clipPath><clipPath id="clip-path-34" transform="translate(-32 -25.72)"><ellipse class="cls-2" cx="242.73" cy="78.85" rx="21.1" ry="21.2" transform="translate(15.34 194.73) rotate(-45)"/></clipPath><clipPath id="clip-path-37" transform="translate(-32 -25.72)"><path class="cls-1" d="M856.54,125.14s-28.78-39.2-28.78-54.92a28.78,28.78,0,0,1,57.56,0C885.32,85.94,856.54,125.14,856.54,125.14Zm0-86.25A31.25,31.25,0,0,0,825.11,70c0,17.16,31.42,60,31.42,60S888,87.12,888,70A31.25,31.25,0,0,0,856.54,38.89Z"/></clipPath><clipPath id="clip-path-38" transform="translate(-32 -25.72)"><rect class="cls-2" x="252.07" y="-1653.36" width="1920" height="2825"/></clipPath><clipPath id="clip-path-39" transform="translate(-32 -25.72)"><ellipse class="cls-2" cx="855.94" cy="70.75" rx="18.44" ry="18.21"/></clipPath><clipPath id="clip-path-42" transform="translate(-32 -25.72)"><path class="cls-1" d="M865.27,67.83l-9.8,9.8a1.38,1.38,0,0,1-2,0l-4.89-4.93a1.39,1.39,0,0,1,2-2l3.93,3.95,8.82-8.82a1.38,1.38,0,0,1,2,0A1.41,1.41,0,0,1,865.27,67.83Z"/></clipPath><clipPath id="clip-path-44" transform="translate(-32 -25.72)"><path class="cls-1" d="M567.57,71.93v2.82a5,5,0,0,0,5,5h6.29a5,5,0,0,0,5-5V71.93a5,5,0,0,0-5-5h-6.29A5,5,0,0,0,567.57,71.93Zm2,0a3,3,0,0,1,3-3h6.29a3,3,0,0,1,3,3v2.82a3,3,0,0,1-3,3h-6.29a3,3,0,0,1-3-3V71.93Zm-22-25h56.29v52.8H547.57V46.94Z"/></clipPath><clipPath id="clip-path-45" transform="translate(-32 -25.72)"><path class="cls-1" d="M568.57,71.93a4,4,0,0,1,4-4h6.29a4,4,0,0,1,4,4v2.82a4,4,0,0,1-4,4h-6.29a4,4,0,0,1-4-4V71.93Z"/></clipPath><clipPath id="clip-path-46" transform="translate(-32 -25.72)"><rect class="cls-2" x="-777.93" y="-1653.36" width="1920" height="2825"/></clipPath><clipPath id="clip-path-49" transform="translate(-32 -25.72)"><path class="cls-1" d="M489.85,72.83v2.82a5,5,0,0,0,5,5h6.29a5,5,0,0,0,5-5V72.83a5,5,0,0,0-5-5h-6.29A5,5,0,0,0,489.85,72.83Zm2,0a3,3,0,0,1,3-3h6.29a3,3,0,0,1,3,3v2.82a3,3,0,0,1-3,3h-6.29a3,3,0,0,1-3-3V72.83Zm-22-25h56.29v52.8H469.85V47.84Z"/></clipPath><clipPath id="clip-path-50" transform="translate(-32 -25.72)"><path class="cls-1" d="M490.85,72.83a4,4,0,0,1,4-4h6.29a4,4,0,0,1,4,4v2.82a4,4,0,0,1-4,4h-6.29a4,4,0,0,1-4-4V72.83Z"/></clipPath><clipPath id="clip-path-54" transform="translate(-32 -25.72)"><path class="cls-1" d="M494.32,106.14v14.51a5,5,0,0,0,5,5h6.29a5,5,0,0,0,5-5V106.14a5,5,0,0,0-5-5h-6.29A5,5,0,0,0,494.32,106.14Zm2,0a3,3,0,0,1,3-3h6.29a3,3,0,0,1,3,3v14.51a3,3,0,0,1-3,3h-6.29a3,3,0,0,1-3-3V106.14Zm-22-25h56.29v64.5H474.32V81.14Z"/></clipPath><clipPath id="clip-path-55" transform="translate(-32 -25.72)"><path class="cls-1" d="M495.32,106.14a4,4,0,0,1,4-4h6.29a4,4,0,0,1,4,4v14.51a4,4,0,0,1-4,4h-6.29a4,4,0,0,1-4-4V106.14Z"/></clipPath><clipPath id="clip-path-59" transform="translate(-32 -25.72)"><path class="cls-1" d="M563.1,106.14v14.51a5,5,0,0,0,5,5h6.29a5,5,0,0,0,5-5V106.14a5,5,0,0,0-5-5H568.1A5,5,0,0,0,563.1,106.14Zm2,0a3,3,0,0,1,3-3h6.29a3,3,0,0,1,3,3v14.51a3,3,0,0,1-3,3H568.1a3,3,0,0,1-3-3V106.14Zm-22-25h56.29v64.5H543.1V81.14Z"/></clipPath><clipPath id="clip-path-60" transform="translate(-32 -25.72)"><path class="cls-1" d="M564.1,106.14a4,4,0,0,1,4-4h6.29a4,4,0,0,1,4,4v14.51a4,4,0,0,1-4,4H568.1a4,4,0,0,1-4-4V106.14Z"/></clipPath><clipPath id="clip-path-64" transform="translate(-32 -25.72)"><path class="cls-1" d="M500.84,59.39L495,81.09a5.36,5.36,0,0,0,5.41,7.06h72.86a5.36,5.36,0,0,0,5.41-7.06l-5.82-21.7a9.24,9.24,0,0,0-8.53-6.54h-55A9.25,9.25,0,0,0,500.84,59.39Zm1.93,0.52a7.26,7.26,0,0,1,6.59-5.06h55a7.25,7.25,0,0,1,6.59,5.06l5.82,21.7a3.38,3.38,0,0,1-3.48,4.54H500.43a3.37,3.37,0,0,1-3.48-4.54Zm-28-27.06H598.93v75.3H474.78V32.85Z"/></clipPath><clipPath id="clip-path-65" transform="translate(-32 -25.72)"><path class="cls-1" d="M501.8,59.65a8.25,8.25,0,0,1,7.56-5.8h55a8.24,8.24,0,0,1,7.56,5.8l5.82,21.7a4.37,4.37,0,0,1-4.44,5.8H500.43a4.37,4.37,0,0,1-4.44-5.8Z"/></clipPath><clipPath id="clip-path-69" transform="translate(-32 -25.72)"><path class="cls-1" d="M488.07,91.84v11.3a10.7,10.7,0,0,0,8.74,10.25l0.16,0,0.57,0.1,2.21,0.37c2.41,0.38,5.21.76,8.35,1.12a264.87,264.87,0,0,0,29.62,1.62A265.26,265.26,0,0,0,567.37,115c3.15-.36,5.95-0.74,8.37-1.12l2.22-.37,0.57-.1,0.2,0a10.65,10.65,0,0,0,8.7-10.25V91.84a15,15,0,0,0-15-15H503.07A15,15,0,0,0,488.07,91.84Zm2,0a13,13,0,0,1,13-13h69.36a13,13,0,0,1,13,13v11.3a8.66,8.66,0,0,1-7,8.28l-0.22,0-0.56.1-2.18.36c-2.39.38-5.16,0.75-8.28,1.11a263.27,263.27,0,0,1-29.42,1.61A262.87,262.87,0,0,1,508.34,113c-3.11-.35-5.88-0.73-8.27-1.11l-2.17-.36-0.55-.1-0.18,0a8.71,8.71,0,0,1-7.1-8.29V91.84Zm-22-35H607.43v79.8H468.07V56.84Z"/></clipPath><clipPath id="clip-path-70" transform="translate(-32 -25.72)"><path class="cls-1" d="M489.07,91.84a14,14,0,0,1,14-14h69.36a14,14,0,0,1,14,14v11.3a9.66,9.66,0,0,1-7.89,9.26s-16.48,3.23-40.81,3.23S497,112.41,497,112.41a9.7,9.7,0,0,1-7.9-9.27V91.84Z"/></clipPath><clipPath id="clip-path-74" transform="translate(-32 -25.72)"><path class="cls-1" d="M502.91,102.94a5.75,5.75,0,1,1,5.7-5.75A5.73,5.73,0,0,1,502.91,102.94Zm0,2a7.75,7.75,0,1,0-7.7-7.75A7.73,7.73,0,0,0,502.91,104.94Zm-27.7-35.5h55.4v55.5h-55.4V69.44Z"/></clipPath><clipPath id="clip-path-75" transform="translate(-32 -25.72)"><ellipse class="cls-2" cx="502.91" cy="97.19" rx="6.7" ry="6.75"/></clipPath><clipPath id="clip-path-79" transform="translate(-32 -25.72)"><path class="cls-1" d="M572.59,102.94a5.75,5.75,0,1,1,5.7-5.75A5.73,5.73,0,0,1,572.59,102.94Zm0,2a7.75,7.75,0,1,0-7.7-7.75A7.73,7.73,0,0,0,572.59,104.94Zm-27.7-35.5h55.4v55.5h-55.4V69.44Z"/></clipPath><clipPath id="clip-path-80" transform="translate(-32 -25.72)"><ellipse class="cls-2" cx="572.59" cy="97.19" rx="6.7" ry="6.75"/></clipPath><clipPath id="clip-path-84" transform="translate(-32 -25.72)"><path class="cls-1" d="M520.33,94.74a1.5,1.5,0,0,1,1.5-1.5h32.73a1.5,1.5,0,1,1,0,3H521.83A1.5,1.5,0,0,1,520.33,94.74Z"/></clipPath><clipPath id="clip-path-86" transform="translate(-32 -25.72)"><path class="cls-1" d="M524.8,101.94a1.49,1.49,0,0,1,1.5-1.5h23.8a1.5,1.5,0,0,1,0,3H526.3A1.5,1.5,0,0,1,524.8,101.94Z"/></clipPath><clipPath id="clip-path-88" transform="translate(-32 -25.72)"><ellipse class="cls-2" cx="586.46" cy="72.87" rx="21.19" ry="21.42"/></clipPath><clipPath id="clip-path-90" transform="translate(-32 -25.72)"><ellipse class="cls-2" cx="586.46" cy="72.87" rx="18.69" ry="18.89"/></clipPath><clipPath id="clip-path-93" transform="translate(-32 -25.72)"><path class="cls-1" d="M586.82,63.28a13,13,0,0,0,4,2.24,16.22,16.22,0,0,0,5.46,1.12,21,21,0,0,1-2.54,9.89,18.5,18.5,0,0,1-7,7.44,18.27,18.27,0,0,1-7-7.47,20.84,20.84,0,0,1-2.54-9.89,17,17,0,0,0,5.46-1.12A13.07,13.07,0,0,0,586.82,63.28Z"/></clipPath><clipPath id="clip-path-96" transform="translate(-32 -25.72)"><polygon class="cls-1" points="588.73 66.56 584.61 73.79 586.67 73.45 585.04 79.83 589.03 72.05 587.02 72.36 588.73 66.56"/></clipPath><clipPath id="clip-path-98" transform="translate(-32 -25.72)"><path class="cls-1" d="M746.65,120.86C744,88.33,728,74.77,713.26,69S690,60.78,687.9,51.66c0-.28-0.1-0.37-0.62-0.27-28.81,7.82-13.6,16.78-13.6,16.78,22,21.12-12.89,43.5-22.13,52.69h95.1ZM639.55,39.35h119.1v93.51H639.55V39.35Z"/></clipPath><clipPath id="clip-path-99" transform="translate(-32 -25.72)"><rect class="cls-2" x="-254.69" y="-1653.36" width="1920" height="2825"/></clipPath><clipPath id="clip-path-100" transform="translate(-32 -25.72)"><path class="cls-1" d="M737.45,61.54h1.68V86.95l-1.68-1.69V61.54Zm-11-11h23.68V97.95H726.45V50.54Z"/></clipPath><clipPath id="clip-path-102" transform="translate(-32 -25.72)"><ellipse class="cls-2" cx="738.32" cy="49.43" rx="18.89" ry="18.71"/></clipPath><clipPath id="clip-path-105" transform="translate(-32 -25.72)"><path class="cls-1" d="M732.48,44.08a3.53,3.53,0,0,1,1.13,1.5c0.11,0.27.22,0.54,0.34,0.8A6.34,6.34,0,1,1,742.32,54c0.39,0.14.78,0.26,1.17,0.36a3.58,3.58,0,0,1,1.45.77A8.54,8.54,0,1,0,732.48,44.08Z"/></clipPath><clipPath id="clip-path-107" transform="translate(-32 -25.72)"><path class="cls-1" d="M737.33,48.59a6.89,6.89,0,0,0-1.19,1.32,2.67,2.67,0,0,0-.32.75,0.4,0.4,0,0,0,.08.35,0.41,0.41,0,0,0,.32.16h2.85a0.63,0.63,0,1,0,0-1.25h-1.29l0,0c0.08-.09.29-0.29,0.61-0.58a6.67,6.67,0,0,0,.7-0.7,3,3,0,0,0,.44-0.72,2,2,0,0,0,.14-0.74,1.54,1.54,0,0,0-.51-1.17,1.93,1.93,0,0,0-1.36-.47,2.12,2.12,0,0,0-1.31.4,1.5,1.5,0,0,0-.48.66,0.64,0.64,0,0,0,.05.57,0.66,0.66,0,0,0,.49.31h0.07a0.67,0.67,0,0,0,.63-0.45,0.52,0.52,0,0,1,.12-0.2,0.55,0.55,0,0,1,.41-0.15,0.55,0.55,0,0,1,.41.14,0.56,0.56,0,0,1,.14.42,1,1,0,0,1-.19.55A6.82,6.82,0,0,1,737.33,48.59Z"/></clipPath><clipPath id="clip-path-109" transform="translate(-32 -25.72)"><path class="cls-1" d="M742.14,48.88h-0.81l0.81-1.19v1.19Zm0.9-3.4h-0.48a0.41,0.41,0,0,0-.34.18L740,48.84a0.55,0.55,0,0,0-.1.31v0.52a0.41,0.41,0,0,0,.41.41h1.81v0.43a0.65,0.65,0,0,0,1.31,0V50.08h0.07a0.6,0.6,0,1,0,0-1.2h-0.07v-3A0.41,0.41,0,0,0,743,45.48Z"/></clipPath><clipPath id="clip-path-111" transform="translate(-32 -25.72)"><path class="cls-1" d="M743,55.3a9.87,9.87,0,0,1-3-.36,1.37,1.37,0,0,0-1.31.32l-1.86,1.48a10.57,10.57,0,0,1-4.92-4.47l1.34-1.87a1.29,1.29,0,0,0,.28-1.34,9.18,9.18,0,0,1-.59-2.94,1.32,1.32,0,0,0-1.38-1.25l-3.11.11a1.32,1.32,0,0,0-1.29,1.34,15.37,15.37,0,0,0,16.06,14.6,1.32,1.32,0,0,0,1.29-1.34l-0.11-3A1.32,1.32,0,0,0,743,55.3Z"/></clipPath><clipPath id="clip-path-113" transform="translate(-32 -25.72)"><path class="cls-2" d="M701,113.28q-0.86,2.64-1.89,5.5l1.58,0.57q1-2.89,1.91-5.56Zm3.6-14.45q-0.41,2.67-1.12,5.67l1.64,0.38q0.73-3.07,1.14-5.8ZM704,84.3a22.33,22.33,0,0,1,1.06,5.54l1.68-.12a24,24,0,0,0-1.15-5.95Zm-9.41-10.63A27.3,27.3,0,0,1,699.21,77l1.14-1.23a29,29,0,0,0-4.9-3.55Zm-11.8-6.76a11.34,11.34,0,0,0,4,3l0.61-1.21a10,10,0,0,1-3.53-2.66Zm2.48-14.11a13.47,13.47,0,0,0-2.56,2.77l0.87,0.57a12.49,12.49,0,0,1,2.36-2.55Zm-4.21,7.82a3,3,0,0,0,.06,3.25l0.7-.46a2.21,2.21,0,0,1,0-2.4,2.9,2.9,0,0,1,.34-0.51l-0.64-.55A3.69,3.69,0,0,0,681.07,60.61Z"/></clipPath><clipPath id="clip-path-115" transform="translate(-32 -25.72)"><path class="cls-1" d="M444.32,82.29A1.31,1.31,0,0,1,443,83.62H389.44a1.31,1.31,0,0,1-1.32-1.32V76.6a1.31,1.31,0,0,1,1.32-1.32h53.49a1.31,1.31,0,0,1,1.32,1.32v5.69h0.08ZM442,120.24a1.31,1.31,0,0,1-1.32,1.32h-19.1V84.79H442v35.45Zm-29.81,1.32V84.79h8.23v36.78h-8.23Zm-21.74-1.32V84.79H411.1v36.78H391.77A1.36,1.36,0,0,1,390.45,120.24Zm14.28-49.71a1.28,1.28,0,0,1,0-1.87l4-4a1.43,1.43,0,0,1,.93-0.39,1.28,1.28,0,0,1,.93.39l5.28,5.3a0.52,0.52,0,0,0,.78,0l5.28-5.3a1.43,1.43,0,0,1,.93-0.39,1.28,1.28,0,0,1,.93.39l4,4a1.28,1.28,0,0,1,0,1.87l-3.57,3.58H408.3ZM443,74.11H426l2.72-2.73a2.41,2.41,0,0,0,0-3.51l-4-4a2.62,2.62,0,0,0-3.57,0l-4.89,4.91-4.89-4.91a2.62,2.62,0,0,0-3.57,0l-4,4a2.41,2.41,0,0,0,0,3.51l2.72,2.73H389.44A2.46,2.46,0,0,0,387,76.6v5.69a2.48,2.48,0,0,0,2.33,2.49v35.45a2.46,2.46,0,0,0,2.48,2.49h48.91a2.46,2.46,0,0,0,2.48-2.49V84.79a2.48,2.48,0,0,0,2.33-2.49V76.6A2.46,2.46,0,0,0,443,74.11Z"/></clipPath><clipPath id="clip-path-116" transform="translate(-32 -25.72)"><rect class="cls-2" x="-935.28" y="-1313.11" width="1920" height="2825"/></clipPath><clipPath id="clip-path-118" transform="translate(-32 -25.72)"><ellipse class="cls-2" cx="416.12" cy="102.53" rx="9.33" ry="9.36"/></clipPath><clipPath id="clip-path-120" transform="translate(-32 -25.72)"><ellipse class="cls-2" cx="416.22" cy="102.63" rx="7.76" ry="7.79"/></clipPath><clipPath id="clip-path-123" transform="translate(-32 -25.72)"><path class="cls-1" d="M384.92,71.79a1.69,1.69,0,0,1-1.7,1.7h-69a1.69,1.69,0,0,1-1.7-1.7v-7.3a1.69,1.69,0,0,1,1.7-1.7h68.9a1.69,1.69,0,0,1,1.7,1.7v7.3h0.1Zm-3,48.7a1.69,1.69,0,0,1-1.7,1.7h-24.6V75h26.3v45.5Zm-38.4,1.7V75h10.6v47.2h-10.6Zm-28-1.7V75h26.6v47.2h-24.9A1.75,1.75,0,0,1,315.52,120.49Zm18.4-63.8a1.63,1.63,0,0,1,0-2.4l5.1-5.1a1.85,1.85,0,0,1,1.2-.5,1.66,1.66,0,0,1,1.2.5l6.8,6.8a0.67,0.67,0,0,0,1,0l6.8-6.8a1.84,1.84,0,0,1,1.2-.5,1.66,1.66,0,0,1,1.2.5l5.1,5.1a1.63,1.63,0,0,1,0,2.4l-4.6,4.6h-20.4Zm49.3,4.6h-21.9l3.5-3.5a3.08,3.08,0,0,0,0-4.5l-5.1-5.1a3.39,3.39,0,0,0-4.6,0l-6.3,6.3-6.3-6.3a3.39,3.39,0,0,0-4.6,0l-5.1,5.1a3.08,3.08,0,0,0,0,4.5l3.5,3.5h-22.1a3.16,3.16,0,0,0-3.2,3.2v7.3a3.18,3.18,0,0,0,3,3.2v45.5a3.16,3.16,0,0,0,3.2,3.2h63a3.16,3.16,0,0,0,3.2-3.2V75a3.18,3.18,0,0,0,3-3.2v-7.3A3.16,3.16,0,0,0,383.22,61.29Z"/></clipPath><clipPath id="clip-path-126" transform="translate(-32 -25.72)"><circle class="cls-2" cx="348.72" cy="97.89" r="12"/></clipPath><clipPath id="clip-path-128" transform="translate(-32 -25.72)"><circle class="cls-2" cx="348.72" cy="97.89" r="10"/></clipPath><clipPath id="clip-path-131" transform="translate(-32 -25.72)"><ellipse class="cls-2" cx="60.17" cy="78.54" rx="21.88" ry="22.87"/></clipPath><clipPath id="clip-path-132" transform="translate(-32 -25.72)"><rect class="cls-2" x="-532" y="-1320" width="1920" height="2825"/></clipPath><clipPath id="clip-path-134" transform="translate(-32 -25.72)"><circle class="cls-2" cx="49.87" cy="59.54" r="3.86"/></clipPath><clipPath id="clip-path-137" transform="translate(-32 -25.72)"><path class="cls-1" d="M50,45v73.65H98.63V45a8.5,8.5,0,0,0-8.5-8.5H58.51A8.5,8.5,0,0,0,50,45Z"/></clipPath><clipPath id="clip-path-139" transform="translate(-32 -25.72)"><path class="cls-1" d="M50.51,45a8,8,0,0,1,8-8H90.13a8,8,0,0,1,8,8v73.15H50.51V45Zm-12-20h71.62V130.15H38.51V25Z"/></clipPath><clipPath id="clip-path-141" transform="translate(-32 -25.72)"><rect class="cls-2" x="49.87" y="73.71" width="49" height="2"/></clipPath><clipPath id="clip-path-143" transform="translate(-32 -25.72)"><path class="cls-1" d="M37,119.42a1,1,0,0,1,1-1h72a1,1,0,0,1,0,2H38A1,1,0,0,1,37,119.42Z"/></clipPath><clipPath id="clip-path-145" transform="translate(-32 -25.72)"><circle class="cls-2" cx="91.05" cy="82.73" r="2.57"/></clipPath><clipPath id="clip-path-148" transform="translate(-32 -25.72)"><circle class="cls-2" cx="91.05" cy="91.75" r="2.57"/></clipPath><clipPath id="clip-path-151" transform="translate(-32 -25.72)"><path class="cls-1" d="M54,82.09A2.92,2.92,0,0,0,56.94,85h9a2.93,2.93,0,0,0,0-5.86h-9A2.93,2.93,0,0,0,54,82.09Zm2,0a0.93,0.93,0,0,1,.93-0.93h9A0.93,0.93,0,0,1,66,83h-9A0.92,0.92,0,0,1,56,82.09ZM34,59.15H88.89V105H34V59.15Z"/></clipPath><clipPath id="clip-path-152" transform="translate(-32 -25.72)"><path class="cls-1" d="M55,82.09a1.93,1.93,0,0,1,1.93-1.93h9A1.93,1.93,0,0,1,66,84h-9A1.92,1.92,0,0,1,55,82.09Z"/></clipPath><clipPath id="clip-path-156" transform="translate(-32 -25.72)"><path class="cls-1" d="M55.8,47.37V64a2.49,2.49,0,0,0,2.5,2.49h32A2.49,2.49,0,0,0,92.84,64V47.37a2.49,2.49,0,0,0-2.5-2.49h-32A2.49,2.49,0,0,0,55.8,47.37Zm1,0a1.49,1.49,0,0,1,1.5-1.49h32a1.49,1.49,0,0,1,1.5,1.49V64a1.49,1.49,0,0,1-1.5,1.49h-32A1.49,1.49,0,0,1,56.8,64V47.37Zm-21-22.49h77V86.48h-77V24.87Z"/></clipPath><clipPath id="clip-path-157" transform="translate(-32 -25.72)"><path class="cls-1" d="M56.3,47.37a2,2,0,0,1,2-2h32a2,2,0,0,1,2,2V64a2,2,0,0,1-2,2h-32a2,2,0,0,1-2-2V47.37Z"/></clipPath></defs><title>feature_icons</title><g class="cls-4"><g class="cls-5"><path class="cls-6" d="M217.9,111.93H182.4V51a4,4,0,0,1,4-4h27.51a4,4,0,0,1,4,4v60.94Zm-31.5-4h27.5V51H186.4v56.93Z" transform="translate(-32 -25.72)"/></g></g><g class="cls-7"><g class="cls-5"><rect class="cls-6" x="145.07" y="26.49" width="46.17" height="12.34"/></g></g><g class="cls-8"><g class="cls-5"><rect class="cls-6" x="145.07" y="37.04" width="46.17" height="12.34"/></g></g><g class="cls-9"><g class="cls-5"><rect class="cls-6" x="145.07" y="47.58" width="46.17" height="12.34"/></g></g><g class="cls-10"><g class="cls-5"><rect class="cls-6" x="145.07" y="58.13" width="46.17" height="12.34"/></g></g><g class="cls-11"><g class="cls-5"><rect class="cls-6" x="145.07" y="68.67" width="46.17" height="12.34"/></g></g><g class="cls-12"><g class="cls-5"><path class="cls-6" d="M251.73,117.79h-35.5V66.24a4,4,0,0,1,4-4h27.51a4,4,0,0,1,4,4v51.55Zm-31.5-4h27.5V66.24h-27.5v47.55Z" transform="translate(-32 -25.72)"/></g></g><g class="cls-13"><g class="cls-5"><rect class="cls-6" x="178.9" y="42.89" width="46.17" height="12.34"/></g></g><g class="cls-14"><g class="cls-5"><rect class="cls-6" x="178.9" y="53.44" width="46.17" height="12.34"/></g></g><g class="cls-15"><g class="cls-5"><rect class="cls-6" x="178.9" y="63.98" width="46.17" height="12.34"/></g></g><g class="cls-16"><g class="cls-5"><rect class="cls-6" x="178.9" y="74.53" width="46.17" height="12.34"/></g></g><g class="cls-17"><g class="cls-5"><path class="cls-6" d="M184.07,119h-35.5V85a4,4,0,0,1,4-4h27.51a4,4,0,0,1,4,4v34Zm-31.5-4h27.5V85h-27.5v30Z" transform="translate(-32 -25.72)"/></g></g><g class="cls-18"><g class="cls-5"><rect class="cls-6" x="111.23" y="62.81" width="46.17" height="12.34"/></g></g><g class="cls-19"><g class="cls-5"><rect class="cls-6" x="111.23" y="74.53" width="46.17" height="12.34"/></g></g><g class="cls-20"><g class="cls-5"><rect class="cls-21" x="212.41" y="48.42" width="60.64" height="60.86" transform="translate(-16.66 169.01) rotate(-45)"/></g></g><g class="cls-22"><g class="cls-5"><rect class="cls-21" x="259.53" y="84.67" width="15.68" height="36.51" transform="translate(-26.47 193.49) rotate(-45)"/></g></g><g class="cls-5"><path class="cls-6" d="M274.74,114.62a4.32,4.32,0,0,1-3.07-1.27l-17.8-17.8L260,89.42l17.8,17.8A4.34,4.34,0,0,1,274.74,114.62ZM258.11,95.56l15.68,15.68a1.34,1.34,0,0,0,2.29-1,1.32,1.32,0,0,0-.39-0.95L260,93.66Z" transform="translate(-32 -25.72)"/></g><g class="cls-23"><g class="cls-5"><rect class="cls-24" x="216.62" y="52.65" width="52.21" height="52.39" transform="translate(-16.66 169.01) rotate(-45)"/></g></g><g class="cls-5"><path class="cls-6" d="M242.82,101.5h-0.05a22.65,22.65,0,1,1-.14-45.3h0.05a22.7,22.7,0,0,1,16.09,38.7h0A22.41,22.41,0,0,1,242.82,101.5Zm-0.18-42.29a19.65,19.65,0,0,0,.14,39.29h0a19.43,19.43,0,0,0,13.84-5.72h0A19.65,19.65,0,0,0,256.59,65,19.68,19.68,0,0,0,242.64,59.21Z" transform="translate(-32 -25.72)"/></g><g class="cls-25"><g class="cls-26"><rect class="cls-6" x="788.11" y="8.17" width="72.85" height="101.04"/></g></g><g class="cls-27"><g class="cls-26"><rect class="cls-24" x="800.49" y="21.83" width="46.89" height="46.42"/></g></g><g class="cls-26"><path class="cls-6" d="M855.94,89.46a18.71,18.71,0,1,1,18.94-18.71A18.85,18.85,0,0,1,855.94,89.46Zm0-36.42a17.71,17.71,0,1,0,17.94,17.71A17.85,17.85,0,0,0,855.94,53Z" transform="translate(-32 -25.72)"/></g><g class="cls-28"><g class="cls-26"><rect class="cls-6" x="811.2" y="34.73" width="27.48" height="22.59"/></g></g><g class="cls-29"><g class="cls-30"><g class="cls-31"><path class="cls-21" d="M568.57,71.93a4,4,0,0,1,4-4h6.29a4,4,0,0,1,4,4v2.82a4,4,0,0,1-4,4h-6.29a4,4,0,0,1-4-4V71.93Z" transform="translate(-32 -25.72)"/></g></g></g><g class="cls-30"><g class="cls-31"><path class="cls-32" d="M578.86,80.74h-6.29a6,6,0,0,1-6-6V71.93a6,6,0,0,1,6-6h6.29a6,6,0,0,1,6,6v2.82A6,6,0,0,1,578.86,80.74Zm-6.29-10.8a2,2,0,0,0-2,2v2.82a2,2,0,0,0,2,2h6.29a2,2,0,0,0,2-2V71.93a2,2,0,0,0-2-2h-6.29Z" transform="translate(-32 -25.72)"/></g></g><g class="cls-33"><g class="cls-34"><g class="cls-31"><path class="cls-21" d="M490.85,72.83a4,4,0,0,1,4-4h6.29a4,4,0,0,1,4,4v2.82a4,4,0,0,1-4,4h-6.29a4,4,0,0,1-4-4V72.83Z" transform="translate(-32 -25.72)"/></g></g></g><g class="cls-34"><g class="cls-31"><path class="cls-32" d="M501.15,81.64h-6.29a6,6,0,0,1-6-6V72.83a6,6,0,0,1,6-6h6.29a6,6,0,0,1,6,6v2.82A6,6,0,0,1,501.15,81.64Zm-6.29-10.8a2,2,0,0,0-2,2v2.82a2,2,0,0,0,2,2h6.29a2,2,0,0,0,2-2V72.83a2,2,0,0,0-2-2h-6.29Z" transform="translate(-32 -25.72)"/></g></g><g class="cls-35"><g class="cls-36"><g class="cls-31"><path class="cls-21" d="M495.32,106.14a4,4,0,0,1,4-4h6.29a4,4,0,0,1,4,4v14.51a4,4,0,0,1-4,4h-6.29a4,4,0,0,1-4-4V106.14Z" transform="translate(-32 -25.72)"/></g></g></g><g class="cls-36"><g class="cls-31"><path class="cls-32" d="M505.61,126.64h-6.29a6,6,0,0,1-6-6V106.14a6,6,0,0,1,6-6h6.29a6,6,0,0,1,6,6v14.51A6,6,0,0,1,505.61,126.64Zm-6.29-22.5a2,2,0,0,0-2,2v14.51a2,2,0,0,0,2,2h6.29a2,2,0,0,0,2-2V106.14a2,2,0,0,0-2-2h-6.29Z" transform="translate(-32 -25.72)"/></g></g><g class="cls-37"><g class="cls-38"><g class="cls-31"><path class="cls-21" d="M564.1,106.14a4,4,0,0,1,4-4h6.29a4,4,0,0,1,4,4v14.51a4,4,0,0,1-4,4H568.1a4,4,0,0,1-4-4V106.14Z" transform="translate(-32 -25.72)"/></g></g></g><g class="cls-38"><g class="cls-31"><path class="cls-32" d="M574.39,126.64H568.1a6,6,0,0,1-6-6V106.14a6,6,0,0,1,6-6h6.29a6,6,0,0,1,6,6v14.51A6,6,0,0,1,574.39,126.64Zm-6.29-22.5a2,2,0,0,0-2,2v14.51a2,2,0,0,0,2,2h6.29a2,2,0,0,0,2-2V106.14a2,2,0,0,0-2-2H568.1Z" transform="translate(-32 -25.72)"/></g></g><g class="cls-39"><g class="cls-40"><g class="cls-31"><path class="cls-21" d="M501.8,59.65a8.25,8.25,0,0,1,7.56-5.8h55a8.24,8.24,0,0,1,7.56,5.8l5.82,21.7a4.37,4.37,0,0,1-4.44,5.8H500.43a4.37,4.37,0,0,1-4.44-5.8Z" transform="translate(-32 -25.72)"/></g></g></g><g class="cls-40"><g class="cls-31"><path class="cls-32" d="M573.28,89.15H500.43a6.36,6.36,0,0,1-6.38-8.32l5.82-21.7a10.24,10.24,0,0,1,9.49-7.28h55a10.24,10.24,0,0,1,9.49,7.28l5.82,21.7A6.36,6.36,0,0,1,573.28,89.15Zm-69.55-29-5.82,21.7a2.39,2.39,0,0,0,2.51,3.28h72.86a2.39,2.39,0,0,0,2.51-3.28L570,60.17a6.24,6.24,0,0,0-5.63-4.32h-55a6.24,6.24,0,0,0-5.63,4.32h0Z" transform="translate(-32 -25.72)"/></g></g><g class="cls-41"><g class="cls-42"><g class="cls-31"><path class="cls-21" d="M489.07,91.84a14,14,0,0,1,14-14h69.36a14,14,0,0,1,14,14v11.3a9.66,9.66,0,0,1-7.89,9.26s-16.48,3.23-40.81,3.23S497,112.41,497,112.41a9.7,9.7,0,0,1-7.9-9.27V91.84Z" transform="translate(-32 -25.72)"/></g></g></g><g class="cls-42"><g class="cls-31"><path class="cls-32" d="M537.73,117.64c-24.25,0-41-3.24-41.15-3.27a11.61,11.61,0,0,1-9.52-11.23V91.84a16,16,0,0,1,16-16h69.36a16,16,0,0,1,16,16v11.3a11.71,11.71,0,0,1-9.59,11.24C578.76,114.4,562,117.64,537.73,117.64Zm-34.66-37.8a12,12,0,0,0-12,12v11.3a7.75,7.75,0,0,0,6.22,7.29c0.23,0,16.62,3.21,40.44,3.21s40.26-3.17,40.42-3.2a7.7,7.7,0,0,0,6.28-7.3V91.84a12,12,0,0,0-12-12H503.07Z" transform="translate(-32 -25.72)"/></g></g><g class="cls-43"><g class="cls-44"><g class="cls-31"><ellipse class="cls-21" cx="470.91" cy="71.47" rx="6.7" ry="6.75"/></g></g></g><g class="cls-44"><g class="cls-31"><path class="cls-32" d="M502.91,105.94a8.75,8.75,0,1,1,8.7-8.75A8.74,8.74,0,0,1,502.91,105.94Zm0-13.5a4.75,4.75,0,1,0,4.7,4.75A4.73,4.73,0,0,0,502.91,92.44Z" transform="translate(-32 -25.72)"/></g></g><g class="cls-45"><g class="cls-46"><g class="cls-31"><ellipse class="cls-21" cx="540.59" cy="71.47" rx="6.7" ry="6.75"/></g></g></g><g class="cls-46"><g class="cls-31"><path class="cls-32" d="M572.59,105.94a8.75,8.75,0,1,1,8.7-8.75A8.74,8.74,0,0,1,572.59,105.94Zm0-13.5a4.75,4.75,0,1,0,4.7,4.75A4.73,4.73,0,0,0,572.59,92.44Z" transform="translate(-32 -25.72)"/></g></g><g class="cls-47"><g class="cls-31"><rect class="cls-32" x="483.33" y="62.52" width="45.73" height="13"/></g></g><g class="cls-48"><g class="cls-31"><rect class="cls-32" x="487.8" y="69.72" width="36.8" height="13"/></g></g><g class="cls-49"><g class="cls-31"><rect class="cls-21" x="528.26" y="20.73" width="52.39" height="52.85"/></g></g><g class="cls-50"><g class="cls-31"><rect class="cls-51" x="530.77" y="23.27" width="47.37" height="47.78"/></g></g><g class="cls-31"><path class="cls-32" d="M586.46,92.76a19.89,19.89,0,1,1,19.69-19.89A19.81,19.81,0,0,1,586.46,92.76Zm0-37.78a17.89,17.89,0,1,0,17.69,17.89A17.81,17.81,0,0,0,586.46,55Z" transform="translate(-32 -25.72)"/></g><g class="cls-52"><g class="cls-31"><rect class="cls-32" x="540.32" y="32.56" width="29.01" height="30.69"/></g></g><g class="cls-31"><path class="cls-32" d="M586.82,84.54l-0.24-.13a18.88,18.88,0,0,1-7.16-7.67,21.41,21.41,0,0,1-2.6-10.13V66.12h0.48a16.61,16.61,0,0,0,5.3-1.09,12.47,12.47,0,0,0,3.88-2.12l0.33-.29,0.33,0.29A12.49,12.49,0,0,0,591,65a15.61,15.61,0,0,0,5.29,1.09h0.49v0.49a21.59,21.59,0,0,1-2.6,10.13,19,19,0,0,1-7.16,7.65Zm-9-17.45a20.63,20.63,0,0,0,2.48,9.17,18.14,18.14,0,0,0,6.52,7.13,18.17,18.17,0,0,0,6.52-7.1,20.83,20.83,0,0,0,2.48-9.17A17.47,17.47,0,0,1,590.69,66a14.41,14.41,0,0,1-3.87-2.06A14.52,14.52,0,0,1,583,66,17.81,17.81,0,0,1,577.82,67.09Z" transform="translate(-32 -25.72)"/></g><g class="cls-53"><g class="cls-31"><rect class="cls-51" x="547.61" y="35.84" width="14.42" height="23.27"/></g></g><g class="cls-54"><g class="cls-55"><path class="cls-32" d="M748.81,122.86H646.71l3.43-3.42c1.49-1.48,3.56-3.24,6-5.28,8.92-7.58,22.39-19,22.74-30.77,0.15-4.86-1.95-9.33-6.39-13.65-1.05-.68-5.31-3.73-4.72-8.13,0.66-4.88,6.88-8.86,19-12.16l0.14,0a2.58,2.58,0,0,1,2.19.43,2.23,2.23,0,0,1,.79,1.5c1.74,7.11,8.28,9.64,20.09,14.2l4,1.56c20.77,8.15,32.43,26.18,34.65,53.59Zm-92.06-4h87.7c-2.5-24.54-13.24-40.69-31.93-48l-4-1.55c-12-4.62-19.48-7.52-22.13-15.57-12.7,3.64-14.53,7.09-14.71,8.44-0.3,2.24,3,4.27,3,4.29l0.2,0.12,0.17,0.16c5.33,5.12,7.95,10.77,7.77,16.79-0.41,13.5-14.69,25.65-24.15,33.69Z" transform="translate(-32 -25.72)"/></g></g><g class="cls-56"><g class="cls-55"><polygon class="cls-32" points="708.13 63.66 704.45 59.95 704.45 34.82 708.13 34.82 708.13 63.66"/></g></g><g class="cls-57"><g class="cls-55"><rect class="cls-51" x="682.43" width="47.77" height="47.43"/></g></g><g class="cls-55"><path class="cls-32" d="M738.32,69.15a19.71,19.71,0,1,1,19.89-19.71A19.82,19.82,0,0,1,738.32,69.15Zm0-37.43a17.71,17.71,0,1,0,17.89,17.71A17.82,17.82,0,0,0,738.32,31.72Z" transform="translate(-32 -25.72)"/></g><g class="cls-58"><g class="cls-55"><rect class="cls-32" x="729.18" y="34.07" width="24.38" height="26.79" transform="translate(-3.52 230.71) rotate(-20)"/></g></g><g class="cls-59"><g class="cls-55"><rect class="cls-32" x="698.81" y="14.76" width="13.89" height="15.67"/></g></g><g class="cls-60"><g class="cls-55"><rect class="cls-32" x="702.92" y="14.76" width="14.19" height="15.67"/></g></g><g class="cls-61"><g class="cls-55"><rect class="cls-32" x="722.33" y="39.72" width="26.87" height="26.45" transform="translate(-33.4 -0.01) rotate(-2)"/></g></g><g class="cls-62"><g class="cls-55"><rect class="cls-32" x="643.62" y="22.07" width="36.12" height="76.56"/></g></g><g class="cls-63"><g class="cls-64"><rect class="cls-32" x="349.95" y="32.48" width="68.53" height="69.53"/></g></g><g class="cls-64"><path class="cls-32" d="M440.68,123.23H391.77a3,3,0,0,1-3-3v-35a3,3,0,0,1-2.33-2.93V76.6a3,3,0,0,1,3-3h16l-1.87-1.87a2.82,2.82,0,0,1-.9-2,3,3,0,0,1,.9-2.19l4-4a3.12,3.12,0,0,1,4.28,0l4.54,4.55,4.54-4.55a3.12,3.12,0,0,1,4.28,0l4,4a2.82,2.82,0,0,1,.9,2,3,3,0,0,1-.9,2.19l-1.87,1.87H443a3,3,0,0,1,3,3v5.69a3,3,0,0,1-2.33,2.93v35A3,3,0,0,1,440.68,123.23ZM389.44,74.61a2,2,0,0,0-2,2v5.69a2,2,0,0,0,1.86,2l0.47,0v35.93a2,2,0,0,0,2,2h48.91a2,2,0,0,0,2-2V84.31l0.47,0a2,2,0,0,0,1.86-2V76.6a2,2,0,0,0-2-2H424.8L428.37,71a2,2,0,0,0,.61-1.47,1.84,1.84,0,0,0-.6-1.32l-4-4a2.15,2.15,0,0,0-2.86,0l-5.09,5.11,5.08-5a1.94,1.94,0,0,1,1.29-.54,1.78,1.78,0,0,1,1.29.54l4,4a1.87,1.87,0,0,1,.55,1.39A1.67,1.67,0,0,1,428,70.9l-3.69,3.71H408.1l-3.72-3.73a1.87,1.87,0,0,1-.55-1.39,1.66,1.66,0,0,1,.58-1.22l3.93-3.95a1.93,1.93,0,0,1,1.29-.54,1.78,1.78,0,0,1,1.29.54l5.28,5.3,0.11-.11-5.24-5.26a2.15,2.15,0,0,0-2.86,0l-4,4a2,2,0,0,0-.61,1.47,1.84,1.84,0,0,0,.6,1.32l3.58,3.59H389.44Zm19.07-1h15.42l3.42-3.44a0.71,0.71,0,0,0,.26-0.52,0.87,0.87,0,0,0-.26-0.64l-4-4a0.78,0.78,0,0,0-.58-0.24,0.94,0.94,0,0,0-.58.24L417,70.33a0.84,0.84,0,0,1-.61.32,1.09,1.09,0,0,1-.87-0.32L410.2,65a0.78,0.78,0,0,0-.58-0.24A0.94,0.94,0,0,0,409,65l-4,4a0.71,0.71,0,0,0-.26.52,0.87,0.87,0,0,0,.26.64Zm32.16,48.45h-19.6V84.29H442.5v36A1.8,1.8,0,0,1,440.68,122.06Zm-18.6-1h18.6a0.81,0.81,0,0,0,.82-0.82v-35H422.08v35.78Zm-1.16,1h-9.23V84.29h9.23v37.78Zm-8.23-1h7.23V85.29h-7.23v35.78Zm-1.09,1H391.77a1.87,1.87,0,0,1-1.82-1.82v-36H411.6v37.78ZM390.95,85.29v35a0.87,0.87,0,0,0,.82.82H410.6V85.29H390.95ZM443,84.12H389.44a1.8,1.8,0,0,1-1.82-1.82V76.6a1.8,1.8,0,0,1,1.82-1.82h53.49a1.8,1.8,0,0,1,1.82,1.82v5.19l0.08,0.5A1.8,1.8,0,0,1,443,84.12Zm-53.57-8.34a0.81,0.81,0,0,0-.82.82v5.69a0.81,0.81,0,0,0,.82.82H443a0.82,0.82,0,0,0,.74-0.47v-6a0.81,0.81,0,0,0-.82-0.82H389.44Z" transform="translate(-32 -25.72)"/></g><g class="cls-65"><g class="cls-64"><rect class="cls-21" x="369.8" y="62.45" width="28.65" height="28.72"/></g></g><g class="cls-66"><g class="cls-64"><rect class="cls-51" x="371.46" y="64.12" width="25.53" height="25.58"/></g></g><g class="cls-64"><path class="cls-32" d="M416.22,111.17a8.54,8.54,0,1,1,8.51-8.54A8.54,8.54,0,0,1,416.22,111.17Zm0-15.58a7,7,0,1,0,7,7A7,7,0,0,0,416.22,95.59Z" transform="translate(-32 -25.72)"/></g><g class="cls-67"><g class="cls-64"><rect class="cls-32" x="274.02" y="16.57" width="85.4" height="86.4"/></g></g><g class="cls-64"><path class="cls-32" d="M380.22,124.19h-63a3.66,3.66,0,0,1-3.7-3.7V75.43a3.71,3.71,0,0,1-3-3.64v-7.3a3.66,3.66,0,0,1,3.7-3.7h20.89l-2.65-2.65a3.47,3.47,0,0,1-1.12-2.49,3.72,3.72,0,0,1,1.12-2.71l5.1-5.1a3.89,3.89,0,0,1,5.31,0l5.95,5.95,5.95-5.95a3.89,3.89,0,0,1,5.31,0l5.1,5.1a3.47,3.47,0,0,1,1.12,2.5,3.71,3.71,0,0,1-1.12,2.71l-2.65,2.65h20.69a3.66,3.66,0,0,1,3.7,3.7v7.3a3.71,3.71,0,0,1-3,3.64v45.06A3.66,3.66,0,0,1,380.22,124.19Zm-66-62.4a2.67,2.67,0,0,0-2.7,2.7v7.3a2.7,2.7,0,0,0,2.53,2.7l0.47,0v46a2.67,2.67,0,0,0,2.7,2.7h63a2.67,2.67,0,0,0,2.7-2.7v-46l0.47,0a2.7,2.7,0,0,0,2.53-2.7v-7.3a2.67,2.67,0,0,0-2.7-2.7H360.11l4.35-4.35a2.72,2.72,0,0,0,.83-2,2.49,2.49,0,0,0-.81-1.79l-5.11-5.11a2.89,2.89,0,0,0-3.89,0l-6.65,6.65-6.65-6.65a2.89,2.89,0,0,0-3.89,0l-5.1,5.1a2.72,2.72,0,0,0-.83,2,2.49,2.49,0,0,0,.81,1.79l4.37,4.37H314.22Zm66,60.9h-25.1V74.49h27.3v46A2.18,2.18,0,0,1,380.22,122.69Zm-24.1-1h24.1a1.19,1.19,0,0,0,1.2-1.2v-45h-25.3v46.2Zm-1.5,1H343V74.49h11.6v48.2Zm-10.6-1h9.6V75.49H344v46.2Zm-1.4,1h-25.4a2.26,2.26,0,0,1-2.2-2.2v-46h27.6v48.2ZM316,75.49v45a1.25,1.25,0,0,0,1.2,1.2h24.4V75.49H316Zm67.2-1.5h-69a2.18,2.18,0,0,1-2.2-2.2v-7.3a2.18,2.18,0,0,1,2.2-2.2h68.9a2.18,2.18,0,0,1,2.2,2.2v6.8h0.1v0.5A2.18,2.18,0,0,1,383.22,74Zm-69-10.7a1.19,1.19,0,0,0-1.2,1.2v7.3a1.19,1.19,0,0,0,1.2,1.2h69a1.21,1.21,0,0,0,1.1-.7v-7.8a1.19,1.19,0,0,0-1.2-1.2h-68.9Zm44.91-1.5H338.31L333.57,57a2.26,2.26,0,0,1-.67-1.67,2,2,0,0,1,.7-1.46l5.07-5.07a2.34,2.34,0,0,1,1.55-.65,2.16,2.16,0,0,1,1.55.65l6.8,6.8a0.24,0.24,0,0,0,.24.07l6.86-6.87a2.34,2.34,0,0,1,1.55-.65,2.16,2.16,0,0,1,1.55.65l5.1,5.1a2.26,2.26,0,0,1,.67,1.67,2,2,0,0,1-.7,1.46Zm-20.4-1h20l4.45-4.45a1,1,0,0,0,.38-0.77,1.26,1.26,0,0,0-.38-0.93l-5.1-5.1a1.16,1.16,0,0,0-.85-0.35,1.36,1.36,0,0,0-.85.35l-6.8,6.8a1,1,0,0,1-.7.37,1.28,1.28,0,0,1-1-.37l-6.8-6.8a1.16,1.16,0,0,0-.85-0.35,1.36,1.36,0,0,0-.85.35l-5.1,5.1a1,1,0,0,0-.38.77,1.26,1.26,0,0,0,.38.93Z" transform="translate(-32 -25.72)"/></g><g class="cls-68"><g class="cls-64"><rect class="cls-21" x="299.72" y="55.17" width="34" height="34"/></g></g><g class="cls-69"><g class="cls-64"><rect class="cls-51" x="301.72" y="57.17" width="30" height="30"/></g></g><g class="cls-64"><path class="cls-32" d="M348.72,108.89a11,11,0,1,1,11-11A11,11,0,0,1,348.72,108.89Zm0-20a9,9,0,1,0,9,9A9,9,0,0,0,348.72,88.89Z" transform="translate(-32 -25.72)"/><path class="cls-70" d="M350.14,102.89h-1.29l-3.28-4.38V98.13h1c1.37,0,2.24-.61,2.43-1.44h-3.4V95.89H349A1.77,1.77,0,0,0,347,94.48h-1.45V93.56h6.15v0.85h-2.46v0a2,2,0,0,1,.79,1.45h1.69V96.7H350a3,3,0,0,1-2.88,2.19Z" transform="translate(-32 -25.72)"/><path class="cls-70" d="M418,106.89h-1l-2.58-3.44v-0.29h0.77a1.75,1.75,0,0,0,1.91-1.13h-2.68v-0.63h2.68a1.39,1.39,0,0,0-1.53-1.11h-1.14V99.56h4.83v0.67h-1.93v0a1.57,1.57,0,0,1,.62,1.14h1.33V102h-1.34a2.33,2.33,0,0,1-2.27,1.72Z" transform="translate(-32 -25.72)"/></g><g class="cls-71"><g class="cls-72"><rect class="cls-21" x="1.29" y="24.96" width="53.76" height="55.73"/></g></g><g class="cls-72"><ellipse class="cls-73" cx="28.17" cy="52.83" rx="21.88" ry="22.87"/></g><g class="cls-74"><g class="cls-72"><rect class="cls-21" x="9.01" y="24.96" width="17.72" height="17.73"/></g></g><g class="cls-72"><circle class="cls-75" cx="17.87" cy="33.83" r="3.86"/></g><g class="cls-76"><g class="cls-72"><rect class="cls-21" x="13.51" y="6.28" width="57.62" height="91.15"/></g></g><g class="cls-77"><g class="cls-72"><path class="cls-78" d="M50.51,45a8,8,0,0,1,8-8H90.13a8,8,0,0,1,8,8v73.15H50.51V45Z" transform="translate(-32 -25.72)"/></g></g><g class="cls-79"><g class="cls-72"><rect class="cls-32" x="12.87" y="43" width="59" height="12"/></g></g><g class="cls-80"><g class="cls-72"><rect class="cls-32" y="87.71" width="84" height="12"/></g></g><g class="cls-81"><g class="cls-72"><rect class="cls-21" x="51.48" y="49.44" width="15.15" height="15.15"/></g></g><g class="cls-72"><circle class="cls-75" cx="59.05" cy="57.01" r="2.57"/></g><g class="cls-82"><g class="cls-72"><rect class="cls-21" x="51.48" y="58.45" width="15.15" height="15.15"/></g></g><g class="cls-72"><circle class="cls-75" cx="59.05" cy="66.03" r="2.57"/></g><g class="cls-83"><g class="cls-84"><g class="cls-72"><path class="cls-21" d="M55,82.09a1.93,1.93,0,0,1,1.93-1.93h9A1.93,1.93,0,0,1,66,84h-9A1.92,1.92,0,0,1,55,82.09Z" transform="translate(-32 -25.72)"/></g></g></g><g class="cls-84"><g class="cls-72"><path class="cls-78" d="M55,82.09a1.93,1.93,0,0,1,1.93-1.93h9A1.93,1.93,0,0,1,66,84h-9A1.92,1.92,0,0,1,55,82.09Z" transform="translate(-32 -25.72)"/></g></g><g class="cls-85"><g class="cls-86"><g class="cls-72"><path class="cls-51" d="M56.3,47.37a2,2,0,0,1,2-2h32a2,2,0,0,1,2,2V64a2,2,0,0,1-2,2h-32a2,2,0,0,1-2-2V47.37Z" transform="translate(-32 -25.72)"/></g></g></g><g class="cls-86"><g class="cls-72"><path class="cls-75" d="M56.3,47.37a2,2,0,0,1,2-2h32a2,2,0,0,1,2,2V64a2,2,0,0,1-2,2h-32a2,2,0,0,1-2-2V47.37Z" transform="translate(-32 -25.72)"/></g></g></svg>